<svg xmlns="http://www.w3.org/2000/svg" width="157.552" height="124" viewBox="0 0 157.552 124">
  <path id="amazonwebservices-original" d="M47.753,94.086l-14.435,6.2L46.688,106l15.5-5.716-14.435-6.2Zm-21.7,7.749-.484,27.9,21.119,9.3V110.069l-20.635-8.234Zm43.4,0L50.368,109.1V136.42l19.086-7.75V101.835Zm22.765-86.8-14.531,6.2,13.466,5.717,15.5-5.717Zm-20.15,8.234v27.9L90.088,56.4l.581-25.382-18.6-7.749Zm40.3,1.55L95.318,32.085V59.5l17.051-7.75V24.819ZM23.97,54.3,9.536,60.5l13.369,5.716L38.4,60.5,23.97,54.3Zm-21.7,7.75-.484,27.9,21.119,9.3V70.287Zm43.4,0L26.586,69.319V96.636l19.083-7.749V62.053Zm24.8-8.784-14.435,6.2L69.4,65.186,84.9,59.47l-14.434-6.2Zm-21.7,7.75-.485,27.9,21.119,9.3V69.254Zm43.4,0L73.086,68.285v27.32l19.084-7.75Zm45.467-45.985-14.434,6.2,13.37,5.717,15.5-5.717Zm-21.7,7.75-.484,27.9,21.119,9.3V31.018l-20.635-8.233Zm43.4,0-19.083,7.266V57.369l19.083-7.749V22.785Z" transform="translate(-1.786 -15.035)" fill="#5d5d5d"/>
</svg>
