<svg xmlns="http://www.w3.org/2000/svg" width="109.192" height="124" viewBox="0 0 109.192 124">
  <path id="css3-plain" d="M8.76,1,18.7,112.567,63.29,125l44.716-12.479L117.952,1H8.76ZM97.306,26.56,94,63.727l.01.2-.014.462v0l-2.35,25.987-.259,2.309-28.029,7.753h0l-.022.019-27.981-7.8L33.459,71.172H47.18L48.153,82.1,63.36,86.219l0,.008v0l15.263-4.18,1.613-17.791H48.325l-.274-3.008L47.428,54.2,47.1,50.417H81.444L82.694,36.58H30.385l-.274-3.006-.623-7.048-.328-3.783H97.633l-.327,3.817Z" transform="translate(-8.76 -1)" fill="#5d5d5d"/>
</svg>
