<svg xmlns="http://www.w3.org/2000/svg" width="55.727" height="124" viewBox="0 0 55.727 124">
  <path id="mongodb-plain" d="M92.778,59.548a58,58,0,0,0-3.194-14.533A71.549,71.549,0,0,0,73.123,17.126c-1.934-2.03-4.084-3.889-5.433-6.415-.853-1.6-1.666-3.218-2.5-4.828l-.527-1.328a3.1,3.1,0,0,0-.148.523c-.068,2.625-1.555,4.406-3.407,6.067-2.083,1.87-4.022,3.9-6.023,5.859q-3.079,4.049-6.155,8.1-2.491,4.576-4.977,9.152L40.629,43.24l-.1.14A83.327,83.327,0,0,0,37.35,61.828a56.128,56.128,0,0,0,.155,7.09,48.693,48.693,0,0,0,1.654,9.955c3.194,11.861,9.675,21.7,18.535,30.058,1.647,1.553,3.336,2.965,5.055,4.443.294-1.006.529-2.013.8-3.019s.537-2,.718-3c-.181,1.005-.385,2-.586,3l-.862,3.019.77,2.608.713,4.051.34,4.227c0,.858-.038,1.719.015,2.576.013.219.3.421.461.632l1.435.5,1.5.582-.257-3.758-.011-3.7.516-5.637.374-1.228,1.071-1.9c1.322-1.064,2.742-2.03,3.947-3.213a91.5,91.5,0,0,0,6.3-6.657,49.9,49.9,0,0,0,6.457-9.925,75.576,75.576,0,0,0,3.183-7.3c.8-2.194,1.3-4.5,1.934-6.757a4.28,4.28,0,0,0,.167-.488,63.813,63.813,0,0,0,1.047-18.442Zm-24.613,51.5-.84-1.839.84,1.839L69.4,112.1Z" transform="translate(-37.284 -4.555)" fill="#5d5d5d" fill-rule="evenodd"/>
</svg>
