<svg xmlns="http://www.w3.org/2000/svg" width="109.727" height="124" viewBox="0 0 109.727 124">
  <path id="nodejs-plain" d="M115.294,31.017,70.026,4.759a9.8,9.8,0,0,0-9.462,0L14.943,31.017A9.745,9.745,0,0,0,10,39.3V91.74a9.813,9.813,0,0,0,4.986,8.289l12.028,6.858c5.77,2.843,7.369,2.843,9.994,2.843,8.546,0,12.985-5.167,12.985-14.18V43.774c0-.731.457-1.819-.261-1.819H43.966c-.73,0-2.176,1.088-2.176,1.818V95.549c0,4-3.708,7.971-10.462,4.594L18.9,92.952A1.375,1.375,0,0,1,18.2,91.74V39.3a1.691,1.691,0,0,1,.914-1.244L64.626,11.839a1.547,1.547,0,0,1,1.451,0l45.083,26.206c.432.259.363.74.363,1.25V91.74c0,.5.094.988-.331,1.229L65.935,119.2a1.33,1.33,0,0,1-1.318,0l-11.605-6.921a1.131,1.131,0,0,0-1.108-.088,30.191,30.191,0,0,1-6.849,3.121c-.746.259-1.845.71.418,1.978l15.175,8.977a9.562,9.562,0,0,0,9.55,0l45.1-26.234a9.316,9.316,0,0,0,4.432-8.289V39.3a9.287,9.287,0,0,0-4.433-8.279ZM79.453,83.43c-12.026,0-14.674-3.317-15.557-9.3-.1-.644-.65-1.414-1.306-1.414H56.714c-.727,0-1.313.882-1.313,1.606,0,7.656,4.163,16.933,24.052,16.933,14.4,0,22.651-5.594,22.651-15.494,0-9.816-6.632-12.392-20.594-14.24C67.4,59.658,65.964,58.716,65.964,55.41c0-2.726,1.214-6.361,11.664-6.361,9.336,0,12.777,2,14.194,8.3a1.3,1.3,0,0,0,1.273,1.016h5.9a1.347,1.347,0,0,0,.963-.406,1.328,1.328,0,0,0,.345-1c-.916-10.838-8.115-15.889-22.675-15.889-12.954,0-20.68,5.47-20.68,14.639,0,9.945,7.688,12.693,20.122,13.923C91.943,71.083,93.1,73.257,93.1,76.183,93.1,81.265,89.02,83.43,79.453,83.43Z" transform="translate(-10 -3.541)" fill="#5d5d5d"/>
</svg>
