<svg xmlns="http://www.w3.org/2000/svg" width="138.862" height="124" viewBox="0 0 138.862 124">
  <g id="react-original" transform="translate(-1.4 -8.1)">
    <circle id="Ellipse_1" data-name="Ellipse 1" cx="12.644" cy="12.644" r="12.644" transform="translate(58.187 57.456)" fill="#5d5d5d"/>
    <path id="Path_3" data-name="Path 3" d="M118.856,49.248c-2.44-.887-4.991-1.775-7.653-2.551.665-2.662,1.22-5.324,1.664-7.875,2.329-14.64-.222-24.955-7.32-28.948a13.778,13.778,0,0,0-7.1-1.775c-7.764,0-17.635,5.767-27.617,15.417C60.849,13.867,50.978,8.1,43.214,8.1a13.778,13.778,0,0,0-7.1,1.775c-7.1,4.1-9.649,14.419-7.32,28.948.444,2.551,1,5.213,1.664,7.875a77.349,77.349,0,0,0-7.653,2.551C8.942,54.572,1.4,61.892,1.4,70.1S9.053,85.628,22.806,90.951c2.44.887,4.991,1.775,7.653,2.551-.665,2.662-1.22,5.324-1.664,7.875-2.329,14.64.222,24.955,7.32,28.948a13.778,13.778,0,0,0,7.1,1.775c7.875,0,17.746-5.767,27.617-15.417,9.982,9.649,19.853,15.417,27.617,15.417a13.778,13.778,0,0,0,7.1-1.775c7.1-4.1,9.649-14.419,7.32-28.948-.444-2.551-1-5.213-1.664-7.875a77.345,77.345,0,0,0,7.653-2.551c13.864-5.324,21.406-12.644,21.406-20.852S132.72,54.572,118.856,49.248ZM102.441,15.42c4.547,2.662,6.1,10.869,4.215,22.515a66.789,66.789,0,0,1-1.553,7.32,131.769,131.769,0,0,0-18.3-2.773A160.03,160.03,0,0,0,75.268,28.064c8.208-8.1,16.526-13.642,23.292-13.642a7.493,7.493,0,0,1,3.882,1ZM90.019,81.191c-2,3.549-4.326,7.1-6.766,10.648-4.1.333-8.208.444-12.422.444-4.326,0-8.429-.111-12.422-.444q-3.66-5.324-6.655-10.648c-2.107-3.66-4.1-7.431-5.878-11.091,1.775-3.66,3.771-7.431,5.878-11.091,2-3.549,4.326-7.1,6.766-10.648,4.1-.333,8.208-.444,12.422-.444,4.326,0,8.429.111,12.422.444q3.66,5.324,6.655,10.648c2.107,3.66,4.1,7.431,5.878,11.091C94.012,73.76,92.126,77.42,90.019,81.191Zm9.206-3.66c1.664,3.882,2.995,7.653,4.215,11.424-3.771.887-7.764,1.553-11.979,2.107,1.331-2.107,2.773-4.326,3.993-6.655,1.331-2.329,2.551-4.658,3.771-6.877ZM70.831,107.588c-2.662-2.884-5.213-5.989-7.653-9.206,2.551.111,5.1.222,7.653.222s5.1-.111,7.653-.222C76.044,101.6,73.493,104.7,70.831,107.588ZM50.2,90.951c-4.215-.555-8.208-1.22-11.979-2.107,1.22-3.66,2.551-7.542,4.215-11.424,1.22,2.218,2.44,4.547,3.771,6.766,1.331,2.44,2.662,4.547,3.993,6.766ZM42.438,62.669c-1.664-3.882-2.995-7.653-4.215-11.424,3.771-.887,7.764-1.553,11.979-2.107-1.331,2.107-2.773,4.326-3.993,6.655C44.878,58.121,43.658,60.451,42.438,62.669ZM70.831,32.612c2.662,2.884,5.213,5.989,7.653,9.206-2.551-.111-5.1-.222-7.653-.222s-5.1.111-7.653.222C65.618,38.6,68.169,35.5,70.831,32.612ZM95.454,55.9l-3.993-6.655c4.215.555,8.208,1.22,11.979,2.107-1.22,3.66-2.551,7.542-4.215,11.424C98,60.451,96.785,58.121,95.454,55.9ZM35.006,37.935c-1.886-11.646-.333-19.853,4.215-22.515a7.493,7.493,0,0,1,3.882-1c6.655,0,14.973,5.435,23.292,13.642A145.8,145.8,0,0,0,54.86,42.483a150.793,150.793,0,0,0-18.3,2.773c-.665-2.551-1.109-4.991-1.553-7.32ZM7.611,70.1c0-5.213,6.322-10.758,17.413-14.862a66.5,66.5,0,0,1,7.1-2.329,161.662,161.662,0,0,0,6.655,17.3A139.761,139.761,0,0,0,32.123,87.4C16.817,82.966,7.611,76.311,7.611,70.1Zm31.61,54.68c-4.547-2.662-6.1-10.869-4.215-22.515a66.786,66.786,0,0,1,1.553-7.32,131.77,131.77,0,0,0,18.3,2.773,160.029,160.029,0,0,0,11.535,14.419c-8.208,8.1-16.526,13.642-23.292,13.642a7.493,7.493,0,0,1-3.882-1Zm67.435-22.515c1.886,11.646.333,19.853-4.215,22.515a7.493,7.493,0,0,1-3.882,1c-6.655,0-14.973-5.435-23.292-13.642A145.8,145.8,0,0,0,86.8,97.717a150.792,150.792,0,0,0,18.3-2.773C105.768,97.5,106.212,99.935,106.656,102.265Zm9.982-17.3a66.5,66.5,0,0,1-7.1,2.329,161.658,161.658,0,0,0-6.655-17.3A139.759,139.759,0,0,0,109.54,52.8c15.306,4.436,24.512,11.091,24.512,17.3C134.051,75.313,127.618,80.858,116.638,84.962Z" transform="translate(0)" fill="#5d5d5d"/>
  </g>
</svg>
