<svg xmlns="http://www.w3.org/2000/svg" width="141.717" height="124" viewBox="0 0 141.717 124">
  <path id="swift" d="M87.349,32.005c62.3,41.575,42.1,87.261,42.1,87.261s17.7,19.583,10.584,36.739c0,0-7.343-11.984-19.53-11.984-11.78,0-18.751,11.984-42.532,11.984C25.075,156.005,0,112.658,0,112.658c47.669,30.823,80.237,8.981,80.237,8.981C58.714,109.434,13.064,50.986,13.064,50.986c39.8,33.223,56.969,41.947,56.969,41.947-10.327-8.29-39.1-48.918-39.1-48.918,23.029,22.843,68.8,54.693,68.8,54.693C112.858,63.51,87.349,32.005,87.349,32.005Z" transform="translate(0 -32.005)" fill="#5d5d5d"/>
</svg>
