<?xml version="1.0" encoding="iso-8859-1"?>
<!-- Generator: Adobe Illustrator 19.0.0, SVG Export Plug-In . SVG Version: 6.00 Build 0)  -->
<svg version="1.1" id="Capa_1" xmlns="http://www.w3.org/2000/svg" xmlns:xlink="http://www.w3.org/1999/xlink" x="0px" y="0px"
	 viewBox="0 0 511.999 511.999" style="enable-background:new 0 0 511.999 511.999;" xml:space="preserve">
<path style="fill:#585E60;" d="M465.056,52.892c-0.144,17.997-9.828,33.687-24.199,42.33c-7.603,4.574-16.524,7.17-26.043,7.088
	c-27.516-0.227-49.645-22.726-49.418-50.253c0.072-8.829,2.442-17.101,6.531-24.261c8.653-15.154,25.023-25.312,43.721-25.147
	C443.164,2.876,465.293,25.365,465.056,52.892z"/>
<path style="fill:#414749;" d="M440.857,95.222c-7.603,4.574-16.524,7.17-26.043,7.088c-27.516-0.227-49.645-22.726-49.418-50.253
	c0.072-8.829,2.442-17.101,6.531-24.261C399.546,44.939,423.127,68.015,440.857,95.222z"/>
<path style="fill:#585E60;" d="M146.604,50.244c-0.227,27.516-22.726,49.645-50.253,49.418c-8.705-0.072-16.864-2.369-23.952-6.346
	c-15.318-8.612-25.62-25.085-25.455-43.896C47.171,21.893,69.66-0.235,97.186,0.002c19.192,0.154,35.768,11.157,43.958,27.135
	C144.699,34.06,146.677,41.92,146.604,50.244z"/>
<path style="fill:#414749;" d="M141.144,27.137c3.554,6.923,5.532,14.783,5.46,23.107c-0.227,27.516-22.726,49.645-50.253,49.418
	c-8.705-0.072-16.864-2.369-23.952-6.346C90.212,66.583,113.711,43.95,141.144,27.137z"/>
<path style="fill:#F9E8D4;" d="M461.037,215.289c0,103.187-76.233,188.575-175.449,202.923c-9.664,1.391-19.541,2.113-29.588,2.113
	c-43.767,0-84.326-13.711-117.621-37.076c-52.858-37.086-87.416-98.493-87.416-167.961c0-113.235,91.802-205.037,205.037-205.037
	S461.037,102.055,461.037,215.289z"/>
<g>
	<path style="fill:#EFCDB1;" d="M317.022,372.012l-31.434,46.2c-9.664,1.391-19.541,2.113-29.588,2.113
		c-43.767,0-84.326-13.711-117.621-37.076c-5.969-13.913-9.558-26.678-11.651-35.961c-1.434-6.33,0.064-12.84,4.078-17.874
		c4.015-5.013,10.217-8.008,16.61-8.008c4.492,0,8.804,1.413,12.468,4.089c13.53,9.855,32.891,26.519,48.301,49.969
		c0.616,0.945,1.243,1.901,1.869,2.868l69.954-40.215L317.022,372.012z"/>
	<path style="fill:#EFCDB1;" d="M461.037,215.289c0,113.234-91.803,205.037-205.037,205.037c-3.494,0-6.967-0.085-10.408-0.255
		c108.391-5.438,194.618-95.042,194.618-204.782S353.983,15.944,245.592,10.507c3.441-0.17,6.914-0.255,10.408-0.255
		C369.234,10.252,461.037,102.055,461.037,215.289z"/>
</g>
<g>
	<path style="fill:#585E60;" d="M303.845,175.908c0,0-38.912,13.561-23.335,63.567s51.126,84.406,84.262,67.206
		s25.269-85.858,2.96-116.086C345.422,160.369,303.845,175.908,303.845,175.908z"/>
	<path style="fill:#585E60;" d="M208.155,175.908c0,0,38.912,13.561,23.335,63.567s-51.126,84.406-84.262,67.206
		s-25.269-85.858-2.96-116.086S208.155,175.908,208.155,175.908z"/>
</g>
<path style="fill:#EFCDB1;" d="M256,367.754c-4.267,0-7.726-3.459-7.726-7.726v-46.097c0-4.268,3.459-7.726,7.726-7.726
	c4.268,0,7.726,3.459,7.726,7.726v46.097C263.726,364.295,260.268,367.754,256,367.754z"/>
<circle style="fill:#8B5016;" cx="256" cy="291.94" r="21.994"/>
<g>
	<path style="fill:#F9E8D4;" d="M300.96,246.075c-4.268,0-7.726-3.459-7.726-7.726v-0.652c0-4.268,3.459-7.726,7.726-7.726
		s7.726,3.459,7.726,7.726v0.652C308.687,242.617,305.228,246.075,300.96,246.075z"/>
	<path style="fill:#F9E8D4;" d="M211.041,246.075c-4.267,0-7.726-3.459-7.726-7.726v-0.652c0-4.268,3.459-7.726,7.726-7.726
		s7.726,3.459,7.726,7.726v0.652C218.767,242.617,215.308,246.075,211.041,246.075z"/>
</g>
<path style="fill:#009655;" d="M142.266,343.785c-1.072-4.753,4.306-8.281,8.244-5.413c11.4,8.305,29.9,23.836,44.366,45.846
	c1.882,2.857,3.682,5.704,5.405,8.507c2.722,4.438,5.249,8.789,7.56,13.014c3.715,6.785,6.863,13.239,9.377,19.119l-22.014,14.475
	c-6.62-6.976-13.86-15.801-21.083-25.897c-2.461-3.442-4.925-7.02-7.36-10.736c-2.321-3.532-4.452-7.089-6.4-10.642
	C150.167,373.498,144.871,355.333,142.266,343.785z"/>
<g>
	<path style="fill:#006B42;" d="M174.122,413.435l26.16-20.711c2.722,4.438,5.249,8.789,7.56,13.014
		c3.715,6.785,6.863,13.239,9.377,19.119l-22.014,14.475C188.585,432.357,181.344,423.531,174.122,413.435z"/>
	<path style="fill:#006B42;" d="M160.362,392.058c9.763,2.324,22.414,5.886,47.48,13.681c3.715,6.785,6.863,13.239,9.377,19.119
		l-22.014,14.475c-8.881-9.352-18.854-22.029-28.443-36.633C164.44,399.168,162.31,395.611,160.362,392.058z"/>
</g>
<path style="fill:#00C37A;" d="M87.865,408.176c-4.796-2.427-3.306-9.626,2.059-9.951c14.077-0.853,35.57-0.843,58.706,3.945
	c10.896,2.25,21.144,4.813,30.265,7.487c5.216,1.525,10.051,3.088,14.438,4.658l-4.157,20.107
	c-10.234-0.654-22.483-2.202-35.747-4.603c-3.304-0.602-6.684-1.26-10.104-1.97C120.183,423.064,100.448,414.545,87.865,408.176z"/>
<path style="fill:#009655;" d="M153.428,429.818l25.466-20.161c5.216,1.525,10.051,3.088,14.438,4.658l-4.157,20.107
	C178.941,433.767,166.692,432.22,153.428,429.818z"/>
<polygon style="fill:#A4E869;" points="129.068,464.928 287.989,335.34 317.022,372.012 158.101,501.6 "/>
<g>
	<path style="fill:#60DC4D;" d="M129.068,464.928l19.234-15.228c0.504,0.53,0.992,1.093,1.454,1.676l26.22,33.118
		c0.483,0.61,0.939,1.24,1.353,1.882L158.101,501.6L129.068,464.928z"/>
	<polygon style="fill:#60DC4D;" points="287.988,335.339 296.353,345.905 137.435,475.49 129.07,464.925 	"/>
</g>
<path style="fill:#A4E869;" d="M140.03,459.081l26.216,33.113c4.189,5.291,3.296,12.977-1.996,17.166l0,0
	c-5.291,4.189-12.977,3.296-17.166-1.996l-26.216-33.113c-4.189-5.291-3.296-12.977,1.996-17.166l0,0
	C128.155,452.896,135.84,453.789,140.03,459.081z"/>
<path style="fill:#F9E8D4;" d="M311.144,322.72c-16.271,0-29.461,13.19-29.461,29.461s13.19,29.461,29.461,29.461l18.506-2.233
	V322.72H311.144z"/>
<path style="fill:#EFCDB1;" d="M311.144,389.368c-20.505,0-37.187-16.682-37.187-37.187s16.682-37.187,37.187-37.187
	c4.268,0,7.726,3.459,7.726,7.726c0,4.268-3.459,7.726-7.726,7.726c-11.984,0-21.735,9.751-21.735,21.735
	s9.751,21.735,21.735,21.735c4.268,0,7.726,3.459,7.726,7.726S315.412,389.368,311.144,389.368z"/>
<g>
</g>
<g>
</g>
<g>
</g>
<g>
</g>
<g>
</g>
<g>
</g>
<g>
</g>
<g>
</g>
<g>
</g>
<g>
</g>
<g>
</g>
<g>
</g>
<g>
</g>
<g>
</g>
<g>
</g>
</svg>
